<svg id="Layer_1" data-name="Layer 1" xmlns="http://www.w3.org/2000/svg" viewBox="0 0 396.39 116.95"><defs><style>.cls-1{fill:#fff;}</style></defs><title>boefhuset_logo_white</title><path class="cls-1" d="M26.36,58.08A7.29,7.29,0,0,1,19,65.33H11.54V32.27H19a7.29,7.29,0,0,1,7.34,7.25Zm0,42A7.26,7.26,0,0,1,19,107.18H11.54V74.26H19a7.26,7.26,0,0,1,7.34,7.11ZM19,23.35H6.93a4.66,4.66,0,0,0-4.6,4.46v83.83a4.57,4.57,0,0,0,4.6,4.46H19c9.07,0,16.55-7.25,16.55-16V81.37A15.68,15.68,0,0,0,30.39,69.8a16,16,0,0,0,5.18-11.72V39.53A16.42,16.42,0,0,0,19,23.35" transform="translate(-2.33 -2.63)"/><path class="cls-1" d="M114.43,23.35H97.31a4.66,4.66,0,0,0-4.61,4.46v86.06A2.24,2.24,0,0,0,95,116.1h4.61a2.24,2.24,0,0,0,2.3-2.23V74.26h12.52a2.33,2.33,0,0,0,2.3-2.23V67.56a2.24,2.24,0,0,0-2.3-2.23H101.92V32.27h12.52a2.24,2.24,0,0,0,2.3-2.23V25.58a2.33,2.33,0,0,0-2.3-2.23" transform="translate(-2.33 -2.63)"/><path class="cls-1" d="M159.48,23.35H155a2.33,2.33,0,0,0-2.3,2.23V65.33H137.89V25.58a2.33,2.33,0,0,0-2.3-2.23H131a2.33,2.33,0,0,0-2.3,2.23v88.29a2.24,2.24,0,0,0,2.3,2.23h4.61a2.24,2.24,0,0,0,2.3-2.23V74.26h14.82v39.61a2.24,2.24,0,0,0,2.3,2.23h4.46a2.24,2.24,0,0,0,2.3-2.23V25.58a2.33,2.33,0,0,0-2.3-2.23" transform="translate(-2.33 -2.63)"/><path class="cls-1" d="M204.66,23.35h-4.6a2.33,2.33,0,0,0-2.3,2.23v74.48a7.42,7.42,0,0,1-14.82,0V25.58a2.33,2.33,0,0,0-2.3-2.23H176a2.44,2.44,0,0,0-2.3,2.23v74.48c0,8.93,7.48,16,16.69,16a16.31,16.31,0,0,0,16.55-16V25.58a2.33,2.33,0,0,0-2.3-2.23" transform="translate(-2.33 -2.63)"/><path class="cls-1" d="M234,23.35c-9.07,0-16.55,7.25-16.55,16V46.5c0,4.19,0,4.19,2.74,8.93l20.72,35.43c.43.7.43.7.43,2.23v7a7.34,7.34,0,0,1-14.68,0V95.32a2.33,2.33,0,0,0-2.3-2.23h-4.6a2.33,2.33,0,0,0-2.3,2.23v4.74a16.56,16.56,0,0,0,33.1,0v-7c0-4,0-4-2.73-8.79L227.11,48.87c-.43-.7-.43-.7-.43-2.37V39.39a7.34,7.34,0,0,1,14.68,0v4.74a2.24,2.24,0,0,0,2.3,2.23h4.6a2.24,2.24,0,0,0,2.3-2.23V39.39c0-8.79-7.48-16-16.55-16" transform="translate(-2.33 -2.63)"/><path class="cls-1" d="M282.81,23.35H265.68a4.57,4.57,0,0,0-4.6,4.46v83.83a4.48,4.48,0,0,0,4.6,4.46h17.13a2.24,2.24,0,0,0,2.3-2.23v-4.46a2.33,2.33,0,0,0-2.3-2.23H270.29V74.26h12.52a2.33,2.33,0,0,0,2.3-2.23V67.56a2.24,2.24,0,0,0-2.3-2.23H270.29V32.27h12.52a2.24,2.24,0,0,0,2.3-2.23V25.58a2.33,2.33,0,0,0-2.3-2.23" transform="translate(-2.33 -2.63)"/><path class="cls-1" d="M320.08,23.35H297.91a2.33,2.33,0,0,0-2.3,2.23V30a2.24,2.24,0,0,0,2.3,2.23h6.48v81.6a2.24,2.24,0,0,0,2.3,2.23h4.61a2.24,2.24,0,0,0,2.3-2.23V32.27h6.48a2.24,2.24,0,0,0,2.3-2.23V25.58a2.33,2.33,0,0,0-2.3-2.23" transform="translate(-2.33 -2.63)"/><path class="cls-1" d="M71.55,100.07a7.42,7.42,0,0,1-14.82,0V39.53a7.41,7.41,0,0,1,14.82,0Zm10-81.27L79,17.35a2.83,2.83,0,0,0-3.9,1.12l-3.43,6.64a16.67,16.67,0,0,0-7.44-1.76A16.45,16.45,0,0,0,47.52,39.53v60.54a15.49,15.49,0,0,0,1.28,6.17l-3.76,8a2.65,2.65,0,0,0,1,3.38l2.47,1.57a2.83,2.83,0,0,0,4-.94l2.7-4.66a17.15,17.15,0,0,0,9.05,2.56,16.3,16.3,0,0,0,16.55-16V39.53a15.74,15.74,0,0,0-2.17-8,2.67,2.67,0,0,0,.51-.77l3.59-8.67a2.66,2.66,0,0,0-1.17-3.33" transform="translate(-2.33 -2.63)"/><path class="cls-1" d="M376.33,111.93c-11.09-6-18-21.16-10.51-34.51,13.95-24.94,6.68-35.56,6.68-35.56s24.26,21.48,24.26,46.34q0,1.72-.11,3.31a59.11,59.11,0,0,0,2.06-16c0-39.07-43.89-72.83-43.89-72.83S368,19.32,342.73,58.52c-13.51,21-1.05,44.82,19,54.24,5.13,2.41,12.27,2.46,18.08.25a10,10,0,0,1-3.49-1.08" transform="translate(-2.33 -2.63)"/></svg>