<svg id="Layer_1" data-name="Layer 1" xmlns="http://www.w3.org/2000/svg" viewBox="0 0 395.06 116.56"><defs><style>.cls-1{fill:#3c3c3b;}.cls-2{fill:#e4342b;}</style></defs><title>boefhuset_logo_colored</title><path class="cls-1" d="M27.28,57.66A7.26,7.26,0,0,1,20,64.89H12.51V31.94H20a7.26,7.26,0,0,1,7.31,7.23Zm0,41.85A7.24,7.24,0,0,1,20,106.59H12.51V73.78H20a7.23,7.23,0,0,1,7.31,7.09ZM20,23h-12a4.65,4.65,0,0,0-4.59,4.45V111a4.55,4.55,0,0,0,4.59,4.45H20c9,0,16.49-7.23,16.49-16V80.87A15.62,15.62,0,0,0,31.3,69.34a15.93,15.93,0,0,0,5.16-11.68V39.17A16.37,16.37,0,0,0,20,23" transform="translate(-3.33 -2.4)"/><path class="cls-1" d="M115.06,23H98a4.65,4.65,0,0,0-4.59,4.45v85.77a2.23,2.23,0,0,0,2.29,2.23h4.59a2.23,2.23,0,0,0,2.29-2.23V73.78h12.48a2.32,2.32,0,0,0,2.3-2.23V67.11a2.23,2.23,0,0,0-2.3-2.22H102.58V31.94h12.48a2.23,2.23,0,0,0,2.3-2.22V25.27a2.32,2.32,0,0,0-2.3-2.23" transform="translate(-3.33 -2.4)"/><path class="cls-1" d="M160,23H155.5a2.32,2.32,0,0,0-2.3,2.23V64.89H138.44V25.27a2.32,2.32,0,0,0-2.3-2.23h-4.59a2.32,2.32,0,0,0-2.29,2.23v88a2.23,2.23,0,0,0,2.29,2.23h4.59a2.23,2.23,0,0,0,2.3-2.23V73.78h14.77v39.48a2.23,2.23,0,0,0,2.3,2.23H160a2.23,2.23,0,0,0,2.3-2.23v-88A2.32,2.32,0,0,0,160,23" transform="translate(-3.33 -2.4)"/><path class="cls-1" d="M205,23H200.4a2.32,2.32,0,0,0-2.3,2.23V99.5a7.39,7.39,0,0,1-14.77,0V25.27A2.32,2.32,0,0,0,181,23h-4.59a2.43,2.43,0,0,0-2.3,2.23V99.5c0,8.9,7.46,16,16.64,16a16.25,16.25,0,0,0,16.49-16V25.27A2.32,2.32,0,0,0,205,23" transform="translate(-3.33 -2.4)"/><path class="cls-1" d="M234.24,23c-9,0-16.49,7.23-16.49,16v7.09c0,4.17,0,4.17,2.73,8.9l20.65,35.31c.43.7.43.7.43,2.22v7a7.32,7.32,0,0,1-14.63,0V94.77a2.32,2.32,0,0,0-2.3-2.23H220a2.32,2.32,0,0,0-2.3,2.23V99.5a16.5,16.5,0,0,0,33,0v-7c0-4,0-4-2.73-8.76L227.36,48.48c-.43-.69-.43-.69-.43-2.36V39a7.32,7.32,0,0,1,14.63,0v4.73a2.23,2.23,0,0,0,2.3,2.22h4.59a2.23,2.23,0,0,0,2.3-2.22V39c0-8.76-7.46-16-16.49-16" transform="translate(-3.33 -2.4)"/><path class="cls-1" d="M282.87,23H265.8a4.55,4.55,0,0,0-4.59,4.45V111a4.46,4.46,0,0,0,4.59,4.45h17.07a2.23,2.23,0,0,0,2.3-2.23v-4.45a2.32,2.32,0,0,0-2.3-2.22H270.39V73.78h12.48a2.32,2.32,0,0,0,2.3-2.23V67.11a2.23,2.23,0,0,0-2.3-2.22H270.39V31.94h12.48a2.23,2.23,0,0,0,2.3-2.22V25.27a2.32,2.32,0,0,0-2.3-2.23" transform="translate(-3.33 -2.4)"/><path class="cls-1" d="M320,23H297.92a2.32,2.32,0,0,0-2.29,2.23v4.45a2.23,2.23,0,0,0,2.29,2.22h6.45v81.33a2.23,2.23,0,0,0,2.3,2.23h4.59a2.23,2.23,0,0,0,2.3-2.23V31.94H320a2.23,2.23,0,0,0,2.3-2.22V25.27A2.32,2.32,0,0,0,320,23" transform="translate(-3.33 -2.4)"/><path class="cls-1" d="M72.32,99.5a7.39,7.39,0,0,1-14.77,0V39.17a7.39,7.39,0,0,1,14.77,0Zm9.93-81-2.54-1.44a2.82,2.82,0,0,0-3.89,1.11l-3.41,6.62A16.62,16.62,0,0,0,65,23,16.4,16.4,0,0,0,48.37,39.17V99.5a15.46,15.46,0,0,0,1.27,6.16l-3.74,7.93a2.64,2.64,0,0,0,1,3.37l2.46,1.56a2.82,2.82,0,0,0,3.94-.93L56,112.94a17.09,17.09,0,0,0,9,2.55,16.25,16.25,0,0,0,16.49-16V39.17a15.67,15.67,0,0,0-2.16-7.93,2.64,2.64,0,0,0,.51-.77l3.58-8.64a2.65,2.65,0,0,0-1.17-3.32" transform="translate(-3.33 -2.4)"/><path class="cls-2" d="M376.08,111.32c-11.05-6-17.91-21.09-10.47-34.4,13.9-24.86,6.66-35.44,6.66-35.44s24.18,21.4,24.18,46.18c0,1.15,0,2.25-.11,3.3a58.89,58.89,0,0,0,2-16C398.39,36,354.64,2.4,354.64,2.4s13.1,16.63-12.05,55.7c-13.46,20.91-1,44.67,18.95,54.06,5.11,2.4,12.23,2.45,18,.25a10,10,0,0,1-3.48-1.08" transform="translate(-3.33 -2.4)"/></svg>